<svg width="40" height="40" viewBox="0 0 40 40" fill="none" xmlns="http://www.w3.org/2000/svg">
<g clip-path="url(#clip0_397_73)">
<path d="M5 23.3333C6.38333 24.4033 8.46167 25.0283 10.8333 25C13.205 25.0283 15.2833 24.4033 16.6667 23.3333C18.05 22.2633 20.1283 21.6383 22.5 21.6667C24.8717 21.6383 26.95 22.2633 28.3333 23.3333" stroke="#19191A" stroke-width="4" stroke-linecap="round" stroke-linejoin="round"/>
<path d="M13.3333 5C12.8058 5.37862 12.3785 5.87995 12.0881 6.46071C11.7977 7.04146 11.6531 7.68417 11.6667 8.33333C11.6531 8.98249 11.7977 9.62521 12.0881 10.206C12.3785 10.7867 12.8058 11.288 13.3333 11.6667" stroke="#19191A" stroke-width="4" stroke-linecap="round" stroke-linejoin="round"/>
<path d="M20 5C19.4725 5.37862 19.0451 5.87995 18.7548 6.46071C18.4644 7.04146 18.3197 7.68417 18.3333 8.33333C18.3197 8.98249 18.4644 9.62521 18.7548 10.206C19.0451 10.7867 19.4725 11.288 20 11.6667" stroke="#19191A" stroke-width="4" stroke-linecap="round" stroke-linejoin="round"/>
<path d="M5 16.6667H28.3333V25C28.3333 27.6522 27.2798 30.1957 25.4044 32.0711C23.529 33.9464 20.9855 35 18.3333 35H15C12.3478 35 9.8043 33.9464 7.92893 32.0711C6.05357 30.1957 5 27.6522 5 25V16.6667Z" stroke="#19191A" stroke-width="4" stroke-linecap="round" stroke-linejoin="round"/>
<path d="M27.91 27.8767C28.6543 28.2184 29.4712 28.372 30.2888 28.324C31.1064 28.2761 31.8997 28.028 32.599 27.6016C33.2983 27.1753 33.8821 26.5836 34.2992 25.8788C34.7162 25.1739 34.9538 24.3774 34.9909 23.5592C35.028 22.741 34.8636 21.9263 34.512 21.1865C34.1605 20.4468 33.6326 19.8047 32.9748 19.3168C32.317 18.8289 31.5495 18.51 30.7395 18.3882C29.9296 18.2664 29.1022 18.3454 28.33 18.6183" stroke="#19191A" stroke-width="4" stroke-linecap="round" stroke-linejoin="round"/>
</g>
<defs>
<clipPath id="clip0_397_73">
<rect width="40" height="40" fill="white"/>
</clipPath>
</defs>
</svg>
