<svg width="50" height="50" viewBox="0 0 50 50" fill="none" xmlns="http://www.w3.org/2000/svg">
<g filter="url(#filter0_d_102_103)">
<path d="M49.2188 25C49.2188 11.6211 38.3789 0.78125 25 0.78125C11.6211 0.78125 0.78125 11.6211 0.78125 25C0.78125 37.0879 9.6377 47.1074 21.2158 48.9258V32.001H15.0635V25H21.2158V19.6641C21.2158 13.5947 24.8291 10.2422 30.3633 10.2422C33.0137 10.2422 35.7852 10.7148 35.7852 10.7148V16.6719H32.7305C29.7227 16.6719 28.7842 18.5391 28.7842 20.4541V25H35.501L34.4268 32.001H28.7842V48.9258C40.3623 47.1074 49.2188 37.0879 49.2188 25Z" fill="#AAAAB3"/>
</g>
<defs>
<filter id="filter0_d_102_103" x="-3.21875" y="0.78125" width="56.4375" height="56.1445" filterUnits="userSpaceOnUse" color-interpolation-filters="sRGB">
<feFlood flood-opacity="0" result="BackgroundImageFix"/>
<feColorMatrix in="SourceAlpha" type="matrix" values="0 0 0 0 0 0 0 0 0 0 0 0 0 0 0 0 0 0 127 0" result="hardAlpha"/>
<feOffset dy="4"/>
<feGaussianBlur stdDeviation="2"/>
<feComposite in2="hardAlpha" operator="out"/>
<feColorMatrix type="matrix" values="0 0 0 0 0 0 0 0 0 0 0 0 0 0 0 0 0 0 0.25 0"/>
<feBlend mode="normal" in2="BackgroundImageFix" result="effect1_dropShadow_102_103"/>
<feBlend mode="normal" in="SourceGraphic" in2="effect1_dropShadow_102_103" result="shape"/>
</filter>
</defs>
</svg>
