<svg width="44" height="47" viewBox="0 0 44 47" fill="none" xmlns="http://www.w3.org/2000/svg">
<g filter="url(#filter0_d_102_99)">
<path d="M21.8848 10.7695C15.6738 10.7695 10.6641 15.7793 10.6641 21.9902C10.6641 28.2012 15.6738 33.2109 21.8848 33.2109C28.0957 33.2109 33.1055 28.2012 33.1055 21.9902C33.1055 15.7793 28.0957 10.7695 21.8848 10.7695ZM21.8848 29.2852C17.8711 29.2852 14.5898 26.0137 14.5898 21.9902C14.5898 17.9668 17.8613 14.6953 21.8848 14.6953C25.9082 14.6953 29.1797 17.9668 29.1797 21.9902C29.1797 26.0137 25.8984 29.2852 21.8848 29.2852ZM36.1816 10.3105C36.1816 11.7656 35.0098 12.9277 33.5645 12.9277C32.1094 12.9277 30.9473 11.7559 30.9473 10.3105C30.9473 8.86523 32.1191 7.69336 33.5645 7.69336C35.0098 7.69336 36.1816 8.86523 36.1816 10.3105ZM43.6133 12.9668C43.4473 9.46094 42.6465 6.35547 40.0781 3.79687C37.5195 1.23828 34.4141 0.4375 30.9082 0.261719C27.2949 0.0566406 16.4648 0.0566406 12.8516 0.261719C9.35547 0.427734 6.25 1.22852 3.68164 3.78711C1.11328 6.3457 0.322266 9.45117 0.146484 12.957C-0.0585937 16.5703 -0.0585937 27.4004 0.146484 31.0137C0.3125 34.5195 1.11328 37.625 3.68164 40.1836C6.25 42.7422 9.3457 43.543 12.8516 43.7188C16.4648 43.9238 27.2949 43.9238 30.9082 43.7188C34.4141 43.5527 37.5195 42.752 40.0781 40.1836C42.6367 37.625 43.4375 34.5195 43.6133 31.0137C43.8184 27.4004 43.8184 16.5801 43.6133 12.9668ZM38.9453 34.8906C38.1836 36.8047 36.709 38.2793 34.7852 39.0508C31.9043 40.1934 25.0684 39.9297 21.8848 39.9297C18.7012 39.9297 11.8555 40.1836 8.98438 39.0508C7.07031 38.2891 5.5957 36.8145 4.82422 34.8906C3.68164 32.0098 3.94531 25.1738 3.94531 21.9902C3.94531 18.8066 3.69141 11.9609 4.82422 9.08984C5.58594 7.17578 7.06055 5.70117 8.98438 4.92969C11.8652 3.78711 18.7012 4.05078 21.8848 4.05078C25.0684 4.05078 31.9141 3.79687 34.7852 4.92969C36.6992 5.69141 38.1738 7.16602 38.9453 9.08984C40.0879 11.9707 39.8242 18.8066 39.8242 21.9902C39.8242 25.1738 40.0879 32.0195 38.9453 34.8906Z" fill="#AAAAB3"/>
</g>
<defs>
<filter id="filter0_d_102_99" x="-4.00732" y="0.10791" width="51.7744" height="51.7646" filterUnits="userSpaceOnUse" color-interpolation-filters="sRGB">
<feFlood flood-opacity="0" result="BackgroundImageFix"/>
<feColorMatrix in="SourceAlpha" type="matrix" values="0 0 0 0 0 0 0 0 0 0 0 0 0 0 0 0 0 0 127 0" result="hardAlpha"/>
<feOffset dy="4"/>
<feGaussianBlur stdDeviation="2"/>
<feComposite in2="hardAlpha" operator="out"/>
<feColorMatrix type="matrix" values="0 0 0 0 0 0 0 0 0 0 0 0 0 0 0 0 0 0 0.25 0"/>
<feBlend mode="normal" in2="BackgroundImageFix" result="effect1_dropShadow_102_99"/>
<feBlend mode="normal" in="SourceGraphic" in2="effect1_dropShadow_102_99" result="shape"/>
</filter>
</defs>
</svg>
