<svg width="50" height="50" viewBox="0 0 50 50" fill="none" xmlns="http://www.w3.org/2000/svg">
<path d="M28.125 25C28.125 26.7285 26.7285 28.125 25 28.125C23.2715 28.125 21.875 26.7285 21.875 25C21.875 23.2715 23.2715 21.875 25 21.875C26.7285 21.875 28.125 23.2715 28.125 25ZM0 25C0 11.1914 11.1914 0 25 0C38.8086 0 50 11.1914 50 25C50 38.8086 38.8086 50 25 50C11.1914 50 0 38.8086 0 25ZM31.748 29.9512L37.168 15.8594C37.9004 13.877 36.0352 12.0996 34.1406 12.832L20.0488 18.252C19.2188 18.5645 18.5645 19.2188 18.252 20.0488L12.832 34.1406C12.0996 36.0352 13.877 37.9004 15.8594 37.168L29.9512 31.748C30.7813 31.4355 31.4355 30.7813 31.748 29.9512Z" fill="#AAAAB3"/>
</svg>
