<svg width="50" height="50" viewBox="0 0 50 50" fill="none" xmlns="http://www.w3.org/2000/svg">
<g filter="url(#filter0_d_102_94)">
<path d="M28.125 25C28.125 26.7285 26.7285 28.125 25 28.125C23.2715 28.125 21.875 26.7285 21.875 25C21.875 23.2715 23.2715 21.875 25 21.875C26.7285 21.875 28.125 23.2715 28.125 25ZM0 25C0 11.1914 11.1914 0 25 0C38.8086 0 50 11.1914 50 25C50 38.8086 38.8086 50 25 50C11.1914 50 0 38.8086 0 25ZM31.748 29.9512L37.168 15.8594C37.9004 13.877 36.0352 12.0996 34.1406 12.832L20.0488 18.252C19.2188 18.5645 18.5645 19.2188 18.252 20.0488L12.832 34.1406C12.0996 36.0352 13.877 37.9004 15.8594 37.168L29.9512 31.748C30.7813 31.4355 31.4355 30.7813 31.748 29.9512Z" fill="#AAAAB3"/>
</g>
<defs>
<filter id="filter0_d_102_94" x="-4" y="0" width="58" height="58" filterUnits="userSpaceOnUse" color-interpolation-filters="sRGB">
<feFlood flood-opacity="0" result="BackgroundImageFix"/>
<feColorMatrix in="SourceAlpha" type="matrix" values="0 0 0 0 0 0 0 0 0 0 0 0 0 0 0 0 0 0 127 0" result="hardAlpha"/>
<feOffset dy="4"/>
<feGaussianBlur stdDeviation="2"/>
<feComposite in2="hardAlpha" operator="out"/>
<feColorMatrix type="matrix" values="0 0 0 0 0 0 0 0 0 0 0 0 0 0 0 0 0 0 0.25 0"/>
<feBlend mode="normal" in2="BackgroundImageFix" result="effect1_dropShadow_102_94"/>
<feBlend mode="normal" in="SourceGraphic" in2="effect1_dropShadow_102_94" result="shape"/>
</filter>
</defs>
</svg>
