<svg width="50" height="44" viewBox="0 0 50 44" fill="none" xmlns="http://www.w3.org/2000/svg">
<g filter="url(#filter0_d_102_97)">
<path d="M45.3125 0.25C47.9004 0.25 50 2.34863 50 4.9375C50 6.41211 49.3066 7.79883 48.125 8.6875L26.875 24.625C25.7617 25.4551 24.2383 25.4551 23.125 24.625L1.875 8.6875C0.694629 7.79883 0 6.41211 0 4.9375C0 2.34863 2.09863 0.25 4.6875 0.25H45.3125ZM21.25 27.125C23.4766 28.7949 26.5234 28.7949 28.75 27.125L50 11.1875V31.5C50 34.9473 47.1973 37.75 43.75 37.75H6.25C2.79785 37.75 0 34.9473 0 31.5V11.1875L21.25 27.125Z" fill="#AAAAB3"/>
</g>
<defs>
<filter id="filter0_d_102_97" x="-4" y="0.25" width="58" height="45.5" filterUnits="userSpaceOnUse" color-interpolation-filters="sRGB">
<feFlood flood-opacity="0" result="BackgroundImageFix"/>
<feColorMatrix in="SourceAlpha" type="matrix" values="0 0 0 0 0 0 0 0 0 0 0 0 0 0 0 0 0 0 127 0" result="hardAlpha"/>
<feOffset dy="4"/>
<feGaussianBlur stdDeviation="2"/>
<feComposite in2="hardAlpha" operator="out"/>
<feColorMatrix type="matrix" values="0 0 0 0 0 0 0 0 0 0 0 0 0 0 0 0 0 0 0.25 0"/>
<feBlend mode="normal" in2="BackgroundImageFix" result="effect1_dropShadow_102_97"/>
<feBlend mode="normal" in="SourceGraphic" in2="effect1_dropShadow_102_97" result="shape"/>
</filter>
</defs>
</svg>
