<svg width="32" height="50" viewBox="0 0 32 50" fill="none" xmlns="http://www.w3.org/2000/svg">
<path d="M0 6.25C0 2.79785 2.79785 0 6.25 0H25C28.4473 0 31.25 2.79785 31.25 6.25V43.75C31.25 47.1973 28.4473 50 25 50H6.25C2.79785 50 0 47.1973 0 43.75V6.25ZM6.25 22.6562C6.25 23.9551 7.2998 25 8.59375 25H22.6562C23.9551 25 25 23.9551 25 22.6562V14.8438C25 13.5449 23.9551 12.5 22.6562 12.5H8.59375C7.2998 12.5 6.25 13.5449 6.25 14.8438V22.6562ZM7.8125 34.375C9.10645 34.375 10.1562 33.3301 10.1562 32.0312C10.1562 30.7324 9.10645 29.6875 7.8125 29.6875C6.51855 29.6875 5.46875 30.7324 5.46875 32.0312C5.46875 33.3301 6.51855 34.375 7.8125 34.375ZM7.8125 37.5C6.51855 37.5 5.46875 38.5449 5.46875 39.8438C5.46875 41.1426 6.51855 42.1875 7.8125 42.1875C9.10645 42.1875 10.1562 41.1426 10.1562 39.8438C10.1562 38.5449 9.10645 37.5 7.8125 37.5ZM15.625 34.375C16.9238 34.375 17.9688 33.3301 17.9688 32.0312C17.9688 30.7324 16.9238 29.6875 15.625 29.6875C14.3262 29.6875 13.2812 30.7324 13.2812 32.0312C13.2812 33.3301 14.3262 34.375 15.625 34.375ZM15.625 37.5C14.3262 37.5 13.2812 38.5449 13.2812 39.8438C13.2812 41.1426 14.3262 42.1875 15.625 42.1875C16.9238 42.1875 17.9688 41.1426 17.9688 39.8438C17.9688 38.5449 16.9238 37.5 15.625 37.5ZM23.4375 34.375C24.7363 34.375 25.7812 33.3301 25.7812 32.0312C25.7812 30.7324 24.7363 29.6875 23.4375 29.6875C22.1387 29.6875 21.0938 30.7324 21.0938 32.0312C21.0938 33.3301 22.1387 34.375 23.4375 34.375ZM23.4375 37.5C22.1387 37.5 21.0938 38.5449 21.0938 39.8438C21.0938 41.1426 22.1387 42.1875 23.4375 42.1875C24.7363 42.1875 25.7812 41.1426 25.7812 39.8438C25.7812 38.5449 24.7363 37.5 23.4375 37.5ZM12.5 4.6875C11.6406 4.6875 10.9375 5.38672 10.9375 6.25C10.9375 7.11328 11.6406 7.8125 12.5 7.8125H18.75C19.6094 7.8125 20.3125 7.11328 20.3125 6.25C20.3125 5.38672 19.6094 4.6875 18.75 4.6875H12.5Z" fill="#AAAAB3"/>
</svg>
